<svg xmlns="http://www.w3.org/2000/svg" width="900" height="450" viewBox="0 0 900 450">
  <rect width="100%" height="100%" fill="#f6f6f6" />
  <rect x="40" y="60" width="180" height="80" fill="#ffffff" stroke="#333" />
  <text x="130" y="105" font-family="Arial" font-size="16" text-anchor="middle" fill="#333">Client</text>

  <rect x="260" y="60" width="220" height="80" fill="#ffffff" stroke="#333" />
  <text x="370" y="95" font-family="Arial" font-size="16" text-anchor="middle" fill="#333">Controllers</text>
  <text x="370" y="120" font-family="Arial" font-size="12" text-anchor="middle" fill="#666">Spring Boot</text>

  <rect x="520" y="60" width="160" height="80" fill="#ffffff" stroke="#333" />
  <text x="600" y="105" font-family="Arial" font-size="16" text-anchor="middle" fill="#333">Services</text>

  <rect x="710" y="60" width="150" height="80" fill="#ffffff" stroke="#333" />
  <text x="785" y="105" font-family="Arial" font-size="16" text-anchor="middle" fill="#333">Repositories</text>

  <rect x="710" y="180" width="150" height="80" fill="#ffffff" stroke="#333" />
  <text x="785" y="225" font-family="Arial" font-size="16" text-anchor="middle" fill="#333">SQLite</text>

  <rect x="260" y="180" width="220" height="80" fill="#ffffff" stroke="#333" />
  <text x="370" y="225" font-family="Arial" font-size="16" text-anchor="middle" fill="#333">Swagger/OpenAPI</text>

  <line x1="220" y1="100" x2="260" y2="100" stroke="#333" />
  <line x1="480" y1="100" x2="520" y2="100" stroke="#333" />
  <line x1="680" y1="100" x2="710" y2="100" stroke="#333" />
  <line x1="785" y1="140" x2="785" y2="180" stroke="#333" />

  <text x="450" y="360" font-family="Arial" font-size="12" text-anchor="middle" fill="#666">Placeholder architecture diagram</text>
</svg>
